<?xml version="1.0" encoding="UTF-8" ?>
<!DOCTYPE svg PUBLIC "-//W3C//DTD SVG 1.1//EN" "http://www.w3.org/Graphics/SVG/1.1/DTD/svg11.dtd">
<svg width="75pt" height="73pt" viewBox="0 0 75 73" version="1.1" xmlns="http://www.w3.org/2000/svg">
<g id="#000000ff">
<path fill="#000000" opacity="1.00" d=" M 14.56 11.61 C 16.06 8.74 20.33 8.03 22.62 10.42 C 28.14 16.03 33.54 21.81 38.50 27.94 C 42.01 26.10 44.08 22.56 47.15 20.16 C 50.11 17.81 53.06 15.43 55.65 12.66 C 56.94 11.60 58.12 9.86 59.93 9.82 C 62.38 10.85 63.77 13.44 64.28 15.93 C 62.44 18.83 59.38 20.59 56.94 22.93 C 52.92 26.39 49.83 30.80 45.63 34.06 C 49.25 38.52 53.82 42.14 57.08 46.90 C 59.26 50.13 62.06 52.89 64.18 56.15 C 64.61 57.99 63.96 60.65 61.87 61.13 C 58.89 62.02 55.28 61.13 53.72 58.27 C 50.43 52.72 45.62 48.37 41.68 43.32 C 40.65 41.98 38.48 40.16 36.98 41.92 C 33.72 45.34 29.91 48.26 27.25 52.21 C 24.72 55.41 22.49 59.09 18.88 61.19 C 14.80 62.07 12.47 56.50 14.20 53.33 C 17.73 45.83 25.57 41.78 30.66 35.53 C 31.89 34.39 31.33 32.80 30.29 31.77 C 25.72 26.35 20.29 21.75 15.44 16.60 C 13.95 15.40 14.06 13.27 14.56 11.61 Z" />
</g>
</svg>
