<?xml version="1.0" encoding="UTF-8" ?>
<!DOCTYPE svg PUBLIC "-//W3C//DTD SVG 1.1//EN" "http://www.w3.org/Graphics/SVG/1.1/DTD/svg11.dtd">
<svg width="74pt" height="76pt" viewBox="0 0 74 76" version="1.1" xmlns="http://www.w3.org/2000/svg">
<g id="#000000ff">
<path fill="#000000" opacity="1.00" d=" M 48.72 9.65 C 55.34 10.24 56.33 16.68 55.42 22.49 C 61.68 20.82 74.43 25.14 67.43 31.45 C 65.01 33.71 58.81 32.25 55.45 31.16 C 55.23 35.39 56.93 39.35 56.29 43.60 C 61.34 44.75 70.37 40.40 70.49 48.15 C 69.43 54.48 61.21 53.53 56.33 53.35 C 57.99 58.88 53.26 71.69 47.40 65.52 C 43.25 64.31 46.60 57.05 45.61 53.46 C 41.58 53.44 37.54 53.46 33.51 53.55 C 34.20 58.81 34.01 72.56 26.00 67.02 C 19.16 64.92 25.29 58.31 24.41 53.62 C 18.97 52.75 10.41 56.15 8.58 48.78 C 8.19 40.75 18.60 44.36 24.50 43.62 C 24.55 39.91 24.56 36.19 24.52 32.48 C 19.04 32.76 12.76 35.37 9.62 29.56 C 8.96 22.10 17.14 22.01 23.68 22.69 C 23.65 18.24 22.60 10.45 29.09 10.48 C 36.25 10.35 32.55 18.98 33.53 23.40 C 37.64 24.17 41.48 22.25 45.55 22.55 C 46.06 17.91 43.68 11.94 48.72 9.65 M 34.70 31.53 C 31.94 33.67 34.13 40.50 33.47 44.47 C 37.90 45.03 42.10 43.00 46.56 43.64 C 46.58 39.60 46.58 35.55 46.48 31.51 C 42.55 31.40 38.62 31.54 34.70 31.53 Z" />
</g>
</svg>
