<?xml version="1.0" encoding="UTF-8" ?>
<!DOCTYPE svg PUBLIC "-//W3C//DTD SVG 1.1//EN" "http://www.w3.org/Graphics/SVG/1.1/DTD/svg11.dtd">
<svg width="77pt" height="78pt" viewBox="0 0 77 78" version="1.1" xmlns="http://www.w3.org/2000/svg">
<g id="#000000ff">
<path fill="#000000" opacity="1.00" d=" M 20.39 12.10 C 23.40 10.28 26.78 13.95 26.43 16.95 C 26.36 33.65 26.44 50.35 26.39 67.05 C 26.56 71.95 18.06 74.76 17.11 68.69 C 18.24 51.18 17.74 33.54 17.79 15.98 C 17.64 14.15 18.58 12.58 20.39 12.10 Z" />
<path fill="#000000" opacity="1.00" d=" M 54.28 12.26 C 56.92 10.06 61.68 12.19 60.48 16.00 C 59.46 33.76 62.49 51.29 62.34 68.99 C 61.27 74.64 52.72 72.27 53.47 66.89 C 54.70 48.70 49.94 30.20 54.28 12.26 Z" />
<path fill="#000000" opacity="1.00" d=" M 37.36 13.09 C 39.99 12.08 43.81 14.89 43.35 17.97 C 43.12 33.66 43.27 49.39 44.24 65.01 C 45.58 71.78 34.77 74.84 34.59 66.96 C 37.38 50.10 33.37 33.06 34.75 16.08 C 35.16 14.77 36.24 13.81 37.36 13.09 Z" />
</g>
</svg>
