<?xml version="1.0" encoding="UTF-8" ?>
<!DOCTYPE svg PUBLIC "-//W3C//DTD SVG 1.1//EN" "http://www.w3.org/Graphics/SVG/1.1/DTD/svg11.dtd">
<svg width="78pt" height="75pt" viewBox="0 0 78 75" version="1.1" xmlns="http://www.w3.org/2000/svg">
<g id="#000000ff">
<path fill="#000000" opacity="1.00" d=" M 35.43 7.67 C 42.10 7.15 49.32 6.42 55.50 9.57 C 59.83 11.43 62.02 15.88 64.48 19.60 C 67.43 23.66 66.81 28.94 68.54 33.47 C 71.33 40.80 69.30 49.34 64.02 55.03 C 57.92 61.67 49.39 67.20 40.03 66.70 C 35.38 66.56 30.36 67.34 26.18 64.83 C 22.54 62.84 18.17 61.89 15.35 58.66 C 12.56 55.61 10.39 51.84 9.56 47.77 C 9.18 43.01 9.10 38.17 9.67 33.43 C 11.83 27.33 14.99 21.24 20.21 17.21 C 24.85 13.43 29.49 9.24 35.43 7.67 M 46.04 15.25 C 48.02 17.09 50.63 17.92 53.17 18.63 C 51.97 15.74 48.84 15.19 46.04 15.25 M 29.82 18.86 C 23.42 24.06 17.05 31.21 17.24 39.97 C 17.34 43.26 16.77 47.10 19.34 49.67 C 23.29 55.37 30.27 57.94 36.97 58.21 C 42.33 57.46 47.85 56.31 52.50 53.43 C 57.40 49.59 61.66 44.64 63.45 38.57 C 62.13 37.90 60.63 37.46 59.56 36.40 C 58.69 34.34 59.13 31.82 57.99 29.93 C 51.79 24.75 43.92 22.51 36.47 19.85 C 36.43 18.92 36.36 18.00 36.28 17.07 C 34.06 17.33 31.56 17.17 29.82 18.86 Z" />
</g>
</svg>
