<?xml version="1.0" encoding="UTF-8" ?>
<!DOCTYPE svg PUBLIC "-//W3C//DTD SVG 1.1//EN" "http://www.w3.org/Graphics/SVG/1.1/DTD/svg11.dtd">
<svg width="79pt" height="77pt" viewBox="0 0 79 77" version="1.1" xmlns="http://www.w3.org/2000/svg">
<g id="#000000ff">
<path fill="#000000" opacity="1.00" d=" M 40.55 10.19 C 45.67 7.23 48.15 15.08 50.59 18.35 C 58.19 28.60 63.37 40.27 70.12 51.05 C 73.98 55.52 67.99 62.95 62.77 61.46 C 48.25 58.80 33.53 61.66 18.99 62.53 C 15.18 63.38 13.16 59.26 13.41 56.05 C 22.73 40.92 27.80 23.20 40.55 10.19 M 41.60 22.51 C 36.23 32.41 27.62 41.21 25.26 52.40 C 36.59 53.47 47.66 49.72 59.00 50.50 C 57.89 44.64 53.37 40.13 51.29 34.59 C 48.54 30.58 47.05 22.80 41.60 22.51 Z" />
</g>
</svg>
